<svg width="128" height="129" viewBox="0 0 128 129" fill="none" xmlns="http://www.w3.org/2000/svg">
<path d="M44.3965 107.494C47.5314 108.91 48.5427 112.229 47.0737 115.481C45.6178 118.703 42.5055 120.229 39.2831 118.773C38.0437 118.213 37.168 117.431 36.6813 116.527C36.1161 115.446 36.0325 114.232 36.4151 113.035L38.4273 113.945C38.0898 115.197 38.6395 116.428 40.0685 117.074C42.1389 118.009 43.9967 116.812 45.0178 114.552C46.0586 112.248 45.5504 110.07 43.6112 109.193C41.9927 108.462 40.6158 109.139 39.9062 110.399L37.8795 109.483C38.4107 108.424 39.4151 107.561 40.5027 107.175C41.6458 106.743 42.9384 106.835 44.3965 107.494Z" fill="#1E1E1E"/>
<path d="M34.0218 101.48L26.398 110.622L24.8251 109.311L32.4489 100.168L34.0218 101.48Z" fill="#1E1E1E"/>
<path d="M20.1995 101.927L18.6883 103.187L17.3559 101.59L18.8671 100.329L20.1995 101.927ZM27.8088 95.5372L21.2479 101.01L19.9463 99.4499L26.5072 93.9769L27.8088 95.5372Z" fill="#1E1E1E"/>
<path d="M21.1774 85.109C22.3366 87.4809 21.2989 89.8758 19.0276 90.9859C16.742 92.103 14.2362 91.4578 13.084 89.1003C12.1285 87.1453 12.6311 85.368 14.1508 84.287L15.022 86.0695C14.2725 86.6495 14.0217 87.4844 14.4713 88.4044C15.1247 89.7413 16.5688 89.8903 18.1213 89.1315C19.6307 88.3938 20.4147 87.1558 19.7613 85.8189C19.2695 84.8127 18.3851 84.497 17.3296 84.8882L16.4584 83.1057C18.2971 82.3495 20.1727 83.0534 21.1774 85.109Z" fill="#1E1E1E"/>
<path d="M16.3455 69.8906L12.69 73.0478L13.8406 73.8895L16.8921 73.4165L17.2009 75.4087L5.43746 77.2323L5.12862 75.2401L9.68223 74.5342C10.4886 74.4092 11.2707 74.3365 11.7633 74.2763L7.96608 71.6106L7.59596 69.2231L11.1596 71.8441L15.9827 67.5505L16.3455 69.8906Z" fill="#1E1E1E"/>
<path d="M18.7546 48.8661C17.9003 51.3809 15.471 52.3637 13.0774 51.5506C10.6686 50.7323 9.35586 48.4783 10.2102 45.9634C11.0645 43.4486 13.4683 42.4909 15.8771 43.3092C18.2708 44.1223 19.6089 46.3512 18.7546 48.8661ZM17.2951 48.3871C17.7737 46.9782 16.8342 45.8142 15.2132 45.2635C13.577 44.7076 12.1077 45.0534 11.6291 46.4623C11.1453 47.8864 12.1051 49.0405 13.7413 49.5963C15.3623 50.147 16.8113 49.8112 17.2951 48.3871Z" fill="#1E1E1E"/>
<path d="M17.0131 32.5852L18.0228 33.3188L18.051 33.2799C17.6164 32.272 17.7159 31.2368 18.4212 30.2659C19.5027 28.7773 21.0706 28.5518 22.5593 29.6333L27.2452 33.0376L26.0509 34.6815L21.6368 31.4747C20.8213 30.8823 19.9685 30.9945 19.3572 31.8359C18.6895 32.7549 18.9183 33.91 19.9021 34.6247L23.9538 37.5682L22.7595 39.2122L15.847 34.1904L17.0131 32.5852Z" fill="#1E1E1E"/>
<path d="M35.1709 17.0456L34.5019 15.8249L35.6524 15.1943L34.3452 12.809L36.0991 11.8478L37.4063 14.2331L38.9076 13.4103L39.5766 14.631L38.0753 15.4538L40.3745 19.6491C40.6744 20.1963 41.0536 20.1892 41.5587 19.9124C41.7411 19.8124 41.9783 19.6459 42.1032 19.541L42.1874 19.4948L42.9487 20.8839C42.6848 21.1015 42.3086 21.3806 41.8316 21.6421C40.6249 22.3034 39.5587 22.3221 38.8359 21.0032L36.3214 16.415L35.1709 17.0456Z" fill="#1E1E1E"/>
<path d="M48.4153 9.59736C48.4725 9.83045 48.6133 10.4714 48.716 10.9569L48.7626 10.9454C49.1046 9.92244 49.8141 9.18821 50.9795 8.90221C52.7665 8.46369 54.1094 9.30385 54.5479 11.0908L55.9283 16.7159L53.9549 17.2002L52.6546 11.9014C52.4143 10.9225 51.6907 10.4575 50.6806 10.7054C49.5774 10.9761 49.0063 12.0059 49.2961 13.1869L50.4897 18.0506L48.5162 18.5348L45.6792 6.97385L47.6526 6.48957L48.4153 9.59736Z" fill="#1E1E1E"/>
<path d="M66.5896 16.5181C63.8746 16.3545 62.3648 14.276 62.5168 11.7526C62.6697 9.21318 64.497 7.35167 67.0204 7.50366C68.2661 7.5787 69.2144 8.0686 69.8869 8.8785C70.6645 9.80693 70.983 11.1725 70.8718 12.7527L64.4993 12.3689C64.5546 13.8469 65.2775 14.8842 66.6989 14.9698C67.6732 15.0285 68.337 14.6518 68.6508 13.9654L70.6313 14.0847C70.1237 15.5929 68.6818 16.6441 66.5896 16.5181ZM66.9319 8.973C65.6063 8.89316 64.8647 9.76214 64.6082 11.0931L68.8565 11.349C68.8613 9.93875 68.1617 9.04707 66.9319 8.973Z" fill="#1E1E1E"/>
<path d="M83.5824 23.3875L89.4618 13.6112L91.1483 14.6255L90.4969 15.7087L90.538 15.7334C91.562 15.2104 92.5526 15.2086 93.581 15.8271C95.4869 16.9733 95.8111 19.2593 94.4092 21.5903C92.9909 23.9486 90.8416 24.7285 88.8672 23.5411C87.8936 22.9556 87.354 22.0523 87.3468 21.0397L87.3057 21.015C87.1682 21.3057 86.9152 21.7884 86.5029 22.474L85.3238 24.4347L83.5824 23.3875ZM89.3709 21.9583C90.5227 22.651 91.7499 22.0074 92.6157 20.5677C93.4898 19.1143 93.5269 17.7176 92.334 17.0002C91.0177 16.2086 89.7328 16.9482 88.8999 18.333C88.0671 19.7179 88.0272 21.1502 89.3709 21.9583Z" fill="#1E1E1E"/>
<path d="M104.73 24.8655C104.551 25.0253 104.051 25.4501 103.67 25.7684L103.702 25.8042C104.766 25.6268 105.747 25.9093 106.546 26.8046C107.771 28.1775 107.659 29.7576 106.286 30.9826L101.964 34.8389L100.611 33.3227L104.682 29.6902C105.434 29.0191 105.506 28.1619 104.813 27.3859C104.057 26.5383 102.88 26.5166 101.973 27.3262L98.2359 30.6605L96.883 29.1444L105.765 21.2188L107.118 22.735L104.73 24.8655Z" fill="#1E1E1E"/>
<path d="M107.143 44.1779C106.042 41.7612 107.137 39.3805 109.437 38.3318C111.752 37.2765 114.253 38.0179 115.354 40.4346C116.456 42.8513 115.362 45.1963 113.048 46.2516C110.747 47.3002 108.245 46.5946 107.143 44.1779ZM108.534 43.5262C109.152 44.8801 110.634 45.0837 112.191 44.3735C113.764 43.6567 114.597 42.3978 113.979 41.0439C113.355 39.6754 111.865 39.493 110.293 40.2098C108.735 40.92 107.911 42.1577 108.534 43.5262Z" fill="#1E1E1E"/>
<path d="M117.702 52.3553L119.075 52.1238L119.293 53.4176L121.975 52.9653L122.307 54.9375L119.625 55.3897L119.91 57.0779L118.537 57.3094L118.253 55.6212L113.535 56.4167C112.92 56.5204 112.802 56.881 112.898 57.449C112.933 57.6541 113.012 57.9328 113.07 58.0852L113.086 58.1799L111.524 58.4433C111.405 58.1226 111.265 57.6757 111.174 57.1393C110.946 55.7824 111.278 54.7691 112.761 54.519L117.92 53.649L117.702 52.3553Z" fill="#1E1E1E"/>
<path d="M111.294 68.3681C111.542 65.7237 113.677 64.2047 116.194 64.4411C118.727 64.679 120.526 66.5675 120.278 69.2119C120.03 71.8562 117.913 73.3449 115.38 73.107C112.863 72.8706 111.045 71.0124 111.294 68.3681ZM112.824 68.4958C112.685 69.9773 113.869 70.8919 115.573 71.052C117.294 71.2136 118.643 70.5368 118.782 69.0553C118.923 67.5579 117.722 66.6576 116.001 66.4961C114.297 66.336 112.965 66.9984 112.824 68.4958Z" fill="#1E1E1E"/>
<path d="M105.43 81.0447C106.309 78.9324 107.707 77.9891 109.279 78.4181L108.529 80.2202C107.823 80.0826 107.246 80.553 106.816 81.5869C106.293 82.8425 106.614 83.7384 107.751 84.2119L107.943 84.2918C108.371 84.4701 108.764 84.6509 109.024 84.7763L109.042 84.732C108.462 83.9187 108.323 83.0461 108.759 81.9974C109.559 80.0771 111.64 79.1582 113.988 80.1358C116.352 81.1196 117.256 83.1944 116.469 85.0851C116.008 86.193 115.31 86.7865 114.271 86.9087L114.259 86.9382L115.278 87.3625L114.522 89.1794L107.151 86.1111C106.043 85.65 105.384 84.9425 105.096 84.0946C104.82 83.2172 104.969 82.1525 105.43 81.0447ZM110.066 82.9397C109.469 84.3725 110.276 85.3494 111.649 85.9213C113.053 86.5054 114.269 86.249 114.828 84.9048C115.338 83.6788 114.691 82.6119 113.243 82.0093C111.796 81.4068 110.576 81.7136 110.066 82.9397Z" fill="#1E1E1E"/>
<path d="M108.636 98.3927L107.428 97.4447L107.398 97.4824C107.931 98.5918 107.868 99.5795 107.196 100.436C107.048 100.624 106.937 100.74 106.798 100.814L105.363 99.6885L105.402 99.6381C105.558 99.5167 105.67 99.4006 105.798 99.237C106.64 98.1894 106.545 96.8334 105.248 95.8163L101.874 93.1698L103.128 91.5709L109.851 96.8442L108.636 98.3927Z" fill="#1E1E1E"/>
<path d="M91.0899 103.459C91.3198 103.528 91.6092 103.732 91.9766 104.177L92.0024 104.158C92.0072 103.22 92.2934 102.314 93.3884 101.507C94.7281 100.52 96.2454 100.476 97.2323 101.815C98.3805 103.374 97.4706 104.621 95.9769 106.019C94.9477 106.996 94.5137 107.594 94.9692 108.212C95.4058 108.805 96.1122 108.9 96.9366 108.293C97.8512 107.619 97.989 106.862 97.5246 106.151L99.0705 105.012C99.8825 106.222 99.7427 107.975 97.7846 109.417C96.9988 109.996 96.3079 110.326 95.6483 110.375C94.7195 110.463 93.9006 110.053 93.2268 109.138L90.5602 105.518C90.1427 104.951 89.8214 104.731 89.5909 104.742L89.5055 104.626L91.0899 103.459ZM93.7374 102.979C92.6166 103.805 92.5677 105.033 93.137 105.806L93.8867 106.824C94.0569 106.38 94.4678 105.859 94.8943 105.386C95.7568 104.452 96.1846 103.819 95.6247 103.059C95.0838 102.325 94.3686 102.514 93.7374 102.979Z" fill="#1E1E1E"/>
<path d="M82.4831 105.23L86.2241 116.008L84.3649 116.653L83.9504 115.459L83.9051 115.475C83.6507 116.596 83.0175 117.358 81.8839 117.751C79.7829 118.481 77.8197 117.265 76.9278 114.696C76.0253 112.096 76.8033 109.946 78.9799 109.19C80.0531 108.818 81.0924 108.982 81.8746 109.625L81.9199 109.609C81.7847 109.318 81.5761 108.814 81.3138 108.058L80.5635 105.897L82.4831 105.23ZM79.8726 110.591C78.6029 111.032 78.311 112.386 78.8619 113.973C79.4181 115.576 80.4668 116.499 81.7818 116.042C83.2329 115.539 83.4881 114.078 82.9581 112.552C82.4282 111.025 81.3539 110.077 79.8726 110.591Z" fill="#1E1E1E"/>
<path d="M67.8013 120.523C67.7933 120.283 67.7874 119.627 67.7869 119.131L67.7389 119.132C67.1936 120.063 66.3482 120.636 65.1489 120.676C63.3099 120.737 62.1687 119.638 62.1074 117.799L61.9145 112.01L63.9454 111.943L64.1271 117.396C64.1607 118.403 64.7731 119.007 65.8125 118.973C66.9479 118.935 67.7187 118.045 67.6782 116.829L67.5114 111.824L69.5423 111.756L69.9387 123.654L67.9078 123.721L67.8013 120.523Z" fill="#1E1E1E"/>
</svg>
