<svg width="117" height="116" viewBox="0 0 117 116" fill="none" xmlns="http://www.w3.org/2000/svg">
<path d="M55.2999 99.9306L53.1681 111.642L50.9958 111.247L51.8525 106.54L46.6736 105.597L45.8169 110.304L43.6288 109.906L45.7606 98.1943L47.9487 98.5925L47.0031 103.787L52.182 104.73L53.1276 99.5352L55.2999 99.9306Z" fill="#1E1E1E"/>
<path d="M36.5469 93.5257C38.8188 94.9016 39.2554 97.4856 37.9458 99.6479C36.6279 101.824 34.144 102.62 31.8722 101.245C29.6004 99.8686 29.1829 97.315 30.5007 95.1389C31.8103 92.9766 34.2751 92.1498 36.5469 93.5257ZM35.7649 94.8479C34.4922 94.077 33.1531 94.7438 32.2662 96.2082C31.371 97.6862 31.3922 99.1955 32.665 99.9663C33.9515 100.745 35.2852 100.057 36.1803 98.5787C37.0672 97.1143 37.0514 95.627 35.7649 94.8479Z" fill="#1E1E1E"/>
<path d="M26.7839 85.8176L22.1243 93.5668L20.7601 91.9337L23.0175 88.4218C23.6657 87.4008 24.754 86.0331 24.754 86.0331L24.7232 85.9963C24.7232 85.9963 23.1939 86.8359 22.0739 87.2921L18.1854 88.8515L16.8622 87.2675L25.3581 84.1108L26.7839 85.8176Z" fill="#1E1E1E"/>
<path d="M19.1678 72.8664C20.1403 75.4066 18.8708 77.64 16.5099 78.5438C14.134 79.4533 11.684 78.558 10.7803 76.1971C10.3341 75.0316 10.3886 73.9656 10.8485 73.0186C11.3729 71.927 12.485 71.073 13.9701 70.5216L16.2524 76.4837C17.5756 75.823 18.2218 74.7362 17.7127 73.4063C17.3638 72.4948 16.7465 72.0458 15.9917 72.0435L15.2825 70.1906C16.8657 70.03 18.4185 70.9089 19.1678 72.8664ZM12.155 75.6708C12.6298 76.9111 13.7274 77.2276 15.0455 76.9114L13.524 72.9367C12.2377 73.5148 11.7145 74.5203 12.155 75.6708Z" fill="#1E1E1E"/>
<path d="M7.68155 61.3672L9.21496 61.2781L9.21218 61.2302C8.07848 60.7512 7.47208 59.969 7.40895 58.8828C7.39503 58.6433 7.40172 58.4826 7.45726 58.3351L9.27819 58.2293L9.2819 58.2932C9.24512 58.4877 9.23843 58.6483 9.2505 58.856C9.3125 60.1986 10.2814 61.152 11.9267 61.0564L16.2074 60.8076L16.3253 62.8362L7.79573 63.3319L7.68155 61.3672Z" fill="#1E1E1E"/>
<path d="M20.5296 39.6789C19.3635 42.0652 16.8293 42.7324 14.558 41.6225C12.2723 40.5056 11.2557 38.1034 12.4218 35.7171C13.5879 33.3307 16.0936 32.6853 18.3793 33.8022C20.6507 34.9121 21.6956 37.2926 20.5296 39.6789ZM19.1425 39.0189C19.7958 37.682 19.0113 36.4083 17.4732 35.6567C15.9206 34.898 14.4193 35.0548 13.766 36.3917C13.1057 37.743 13.9116 39.0094 15.4641 39.7681C17.0023 40.5197 18.4822 40.3702 19.1425 39.0189Z" fill="#1E1E1E"/>
<path d="M27.3286 29.2622L19.1918 25.3182L20.6957 23.8126L24.3964 25.7452C25.4715 26.299 26.9315 27.2599 26.9315 27.2599L26.9654 27.2259C26.9654 27.2259 25.9916 25.7783 25.4367 24.7038L23.5339 20.9713L24.9926 19.511L28.9003 27.6887L27.3286 29.2622Z" fill="#1E1E1E"/>
<path d="M39.5427 20.5123C37.1001 21.7092 34.7616 20.6457 33.6493 18.3756C32.5298 16.0911 33.2012 13.5705 35.4714 12.4582C36.592 11.909 37.6586 11.8675 38.6431 12.2403C39.7774 12.6645 40.728 13.6953 41.4106 15.1248L35.6778 17.9339C36.4549 19.1924 37.5954 19.7382 38.8741 19.1116C39.7506 18.6821 40.1422 18.027 40.0767 17.2751L41.8583 16.4021C42.1606 17.9645 41.4249 19.59 39.5427 20.5123ZM36.1191 13.78C34.9265 14.3643 34.71 15.486 35.1434 16.7704L38.9652 14.8977C38.2738 13.6685 37.2254 13.2379 36.1191 13.78Z" fill="#1E1E1E"/>
<path d="M49.9625 8.03894L50.1891 9.55813L50.2366 9.55105C50.6118 8.37887 51.3362 7.70461 52.4123 7.54409C52.6497 7.50868 52.8103 7.5009 52.9622 7.54295L53.2313 9.34699L53.168 9.35643C52.971 9.33729 52.8104 9.34507 52.6047 9.37575C51.273 9.55822 50.4106 10.609 50.6537 12.2389L51.2864 16.48L49.2766 16.7798L48.016 8.32929L49.9625 8.03894Z" fill="#1E1E1E"/>
<path d="M70.9273 10.4531L71.3637 9.13133L72.6096 9.54271L73.4624 6.95988L75.3616 7.587L74.5087 10.1698L76.1344 10.7066L75.6979 12.0284L74.0722 11.4916L72.5722 16.0344C72.3765 16.6269 72.6404 16.8994 73.1874 17.08C73.3849 17.1452 73.6684 17.2051 73.8303 17.2249L73.9215 17.255L73.4248 18.7591C73.0857 18.7145 72.625 18.6298 72.1085 18.4593C70.8019 18.0278 70.061 17.2608 70.5326 15.8327L72.1731 10.8645L70.9273 10.4531Z" fill="#1E1E1E"/>
<path d="M85.5333 15.3348C85.3949 15.5308 85.0033 16.0573 84.704 16.4532L84.7432 16.4809C85.7399 16.0684 86.7594 16.1227 87.7395 16.8151C89.2423 17.8768 89.4884 19.4417 88.4267 20.9445L85.0845 25.6749L83.4249 24.5024L86.5732 20.0463C87.1549 19.2231 87.0314 18.3719 86.182 17.7717C85.2542 17.1162 84.1023 17.3603 83.4006 18.3534L80.5109 22.4435L78.8513 21.271L85.7203 11.5487L87.3798 12.7213L85.5333 15.3348Z" fill="#1E1E1E"/>
<path d="M91.9488 33.7232C90.3817 31.5 91.0631 29.023 93.1294 27.5666C95.2087 26.1009 97.8036 26.3663 99.2601 28.4326C99.9791 29.4527 100.188 30.4993 99.9754 31.5303C99.7355 32.7173 98.8674 33.8186 97.5635 34.7181L93.8855 29.5001C92.7653 30.4659 92.4061 31.6782 93.2266 32.8421C93.7889 33.6399 94.4976 33.9233 95.2297 33.74L96.3728 35.3616C94.8777 35.9066 93.1564 35.4364 91.9488 33.7232ZM98.0569 29.2807C97.2918 28.1952 96.15 28.1583 94.9501 28.7888L97.4021 32.2675C98.5069 31.3909 98.7667 30.2877 98.0569 29.2807Z" fill="#1E1E1E"/>
<path d="M96.6719 51.1525L108.054 50.3859L108.186 52.3494L106.925 52.4344L106.928 52.4823C107.943 53.0233 108.511 53.835 108.592 55.0323C108.741 57.2513 107.051 58.8244 104.337 59.0072C101.591 59.1921 99.7225 57.8747 99.5677 55.5759C99.4913 54.4424 99.9239 53.4832 100.75 52.8983L100.747 52.8505C100.43 52.9039 99.8895 52.9724 99.0913 53.0261L96.8084 53.1799L96.6719 51.1525ZM101.154 55.0842C101.245 56.4251 102.474 57.0639 104.15 56.951C105.843 56.8371 107.01 56.0689 106.916 54.6801C106.813 53.1475 105.471 52.5163 103.859 52.6248C102.247 52.7334 101.049 53.5197 101.154 55.0842Z" fill="#1E1E1E"/>
<path d="M107.261 69.5885C107.03 69.5235 106.403 69.3303 105.929 69.1804L105.916 69.2266C106.638 70.0283 106.928 71.0074 106.602 72.1624C106.104 73.9336 104.711 74.6884 102.94 74.1896L97.3646 72.6198L97.9154 70.6639L103.167 72.1426C104.137 72.4158 104.899 72.0151 105.18 71.0141C105.488 69.9206 104.873 68.9163 103.703 68.5868L98.8824 67.2294L99.4332 65.2735L110.892 68.4999L110.341 70.4558L107.261 69.5885Z" fill="#1E1E1E"/>
<path d="M92.0623 81.792C93.5972 79.6244 96.2058 79.3739 98.2689 80.8349C100.345 82.3051 100.962 84.8396 99.4267 87.0072C97.8917 89.1747 95.3147 89.4084 93.2386 87.9381C91.1755 86.4771 90.5273 83.9595 92.0623 81.792ZM93.325 82.6666C92.4651 83.8809 93.0343 85.2643 94.4314 86.2537C95.8416 87.2524 97.3486 87.3393 98.2085 86.1249C99.0777 84.8975 98.4862 83.518 97.076 82.5193C95.6789 81.5299 94.1942 81.4392 93.325 82.6666Z" fill="#1E1E1E"/>
<path d="M90.0578 95.0508L90.9096 96.1518L89.8719 96.9546L91.5362 99.1059L89.9543 100.33L88.29 98.1784L86.9359 99.2259L86.0841 98.1249L87.4382 97.0774L84.5109 93.2935C84.1291 92.8 83.7556 92.8664 83.3001 93.2188C83.1355 93.3461 82.9273 93.5476 82.8204 93.6708L82.7444 93.7296L81.7752 92.4767C82.0018 92.2205 82.3296 91.886 82.7599 91.5531C83.8482 90.7111 84.8984 90.5258 85.8187 91.7154L89.0201 95.8536L90.0578 95.0508Z" fill="#1E1E1E"/>
<path d="M72.8872 96.7264C75.3708 95.785 77.6749 97.0334 78.5709 99.3973C79.4725 101.776 78.5692 104.223 76.0856 105.165C73.602 106.106 71.3336 104.861 70.4319 102.482C69.5359 100.118 70.4037 97.6677 72.8872 96.7264ZM73.4466 98.157C72.0552 98.6844 71.7551 100.15 72.3619 101.751C72.9744 103.367 74.1761 104.28 75.5675 103.753C76.9739 103.219 77.2533 101.745 76.6409 100.129C76.0341 98.528 74.853 97.6239 73.4466 98.157Z" fill="#1E1E1E"/>
<path d="M53.8145 103.686L53.555 105.911L51.3301 105.651L51.5896 103.426L53.8145 103.686Z" fill="#1E1E1E"/>
</svg>
